# Emersyn Runner - models/obstacles/overhead.obj
v -1.2500 1.8500 -0.1500
v 1.2500 1.8500 -0.1500
v 1.2500 2.1500 -0.1500
v -1.2500 2.1500 -0.1500
v -1.2500 1.8500 0.1500
v 1.2500 1.8500 0.1500
v 1.2500 2.1500 0.1500
v -1.2500 2.1500 0.1500
v -1.1750 0.0000 -0.0750
v -1.0250 0.0000 -0.0750
v -1.0250 2.0000 -0.0750
v -1.1750 2.0000 -0.0750
v -1.1750 0.0000 0.0750
v -1.0250 0.0000 0.0750
v -1.0250 2.0000 0.0750
v -1.1750 2.0000 0.0750
v 1.0250 0.0000 -0.0750
v 1.1750 0.0000 -0.0750
v 1.1750 2.0000 -0.0750
v 1.0250 2.0000 -0.0750
v 1.0250 0.0000 0.0750
v 1.1750 0.0000 0.0750
v 1.1750 2.0000 0.0750
v 1.0250 2.0000 0.0750
f 1 2 3 4
f 5 8 7 6
f 1 5 6 2
f 3 7 8 4
f 2 6 7 3
f 1 4 8 5
f 9 10 11 12
f 13 16 15 14
f 9 13 14 10
f 11 15 16 12
f 10 14 15 11
f 9 12 16 13
f 17 18 19 20
f 21 24 23 22
f 17 21 22 18
f 19 23 24 20
f 18 22 23 19
f 17 20 24 21
