# Emersyn Runner - models/props/candy_cane.obj
v 0.0000 0.0000 0.0000
v 0.1500 0.0000 0.0000
v 0.1061 0.0000 0.1061
v 0.0000 0.0000 0.1500
v -0.1061 0.0000 0.1061
v -0.1500 0.0000 0.0000
v -0.1061 0.0000 -0.1061
v -0.0000 0.0000 -0.1500
v 0.1061 0.0000 -0.1061
v 0.0000 2.5000 0.0000
v 0.1500 2.5000 0.0000
v 0.1061 2.5000 0.1061
v 0.0000 2.5000 0.1500
v -0.1061 2.5000 0.1061
v -0.1500 2.5000 0.0000
v -0.1061 2.5000 -0.1061
v -0.0000 2.5000 -0.1500
v 0.1061 2.5000 -0.1061
f 1 2 3
f 1 3 4
f 1 4 5
f 1 5 6
f 1 6 7
f 1 7 8
f 1 8 9
f 1 9 2
f 10 12 11
f 10 13 12
f 10 14 13
f 10 15 14
f 10 16 15
f 10 17 16
f 10 18 17
f 10 11 18
f 2 3 12 11
f 3 4 13 12
f 4 5 14 13
f 5 6 15 14
f 6 7 16 15
f 7 8 17 16
f 8 9 18 17
f 9 2 11 18
