# Emersyn Runner - models/props/jungle_tree.obj
v 0.0000 0.0000 0.0000
v 0.2000 0.0000 0.0000
v 0.1414 0.0000 0.1414
v 0.0000 0.0000 0.2000
v -0.1414 0.0000 0.1414
v -0.2000 0.0000 0.0000
v -0.1414 0.0000 -0.1414
v -0.0000 0.0000 -0.2000
v 0.1414 0.0000 -0.1414
v 0.0000 3.0000 0.0000
v 0.2000 3.0000 0.0000
v 0.1414 3.0000 0.1414
v 0.0000 3.0000 0.2000
v -0.1414 3.0000 0.1414
v -0.2000 3.0000 0.0000
v -0.1414 3.0000 -0.1414
v -0.0000 3.0000 -0.2000
v 0.1414 3.0000 -0.1414
v -1.0000 3.0000 -1.0000
v 1.0000 3.0000 -1.0000
v 1.0000 4.5000 -1.0000
v -1.0000 4.5000 -1.0000
v -1.0000 3.0000 1.0000
v 1.0000 3.0000 1.0000
v 1.0000 4.5000 1.0000
v -1.0000 4.5000 1.0000
f 1 2 3
f 1 3 4
f 1 4 5
f 1 5 6
f 1 6 7
f 1 7 8
f 1 8 9
f 1 9 2
f 10 12 11
f 10 13 12
f 10 14 13
f 10 15 14
f 10 16 15
f 10 17 16
f 10 18 17
f 10 11 18
f 2 3 12 11
f 3 4 13 12
f 4 5 14 13
f 5 6 15 14
f 6 7 16 15
f 7 8 17 16
f 8 9 18 17
f 9 2 11 18
f 19 20 21 22
f 23 26 25 24
f 19 23 24 20
f 21 25 26 22
f 20 24 25 21
f 19 22 26 23
