# Emersyn Runner - models/pickups/coin.obj
v 0.0000 0.8000 0.0000
v 0.3000 0.8000 0.0000
v 0.2772 0.8000 0.1148
v 0.2121 0.8000 0.2121
v 0.1148 0.8000 0.2772
v 0.0000 0.8000 0.3000
v -0.1148 0.8000 0.2772
v -0.2121 0.8000 0.2121
v -0.2772 0.8000 0.1148
v -0.3000 0.8000 0.0000
v -0.2772 0.8000 -0.1148
v -0.2121 0.8000 -0.2121
v -0.1148 0.8000 -0.2772
v -0.0000 0.8000 -0.3000
v 0.1148 0.8000 -0.2772
v 0.2121 0.8000 -0.2121
v 0.2772 0.8000 -0.1148
v 0.0000 0.8800 0.0000
v 0.3000 0.8800 0.0000
v 0.2772 0.8800 0.1148
v 0.2121 0.8800 0.2121
v 0.1148 0.8800 0.2772
v 0.0000 0.8800 0.3000
v -0.1148 0.8800 0.2772
v -0.2121 0.8800 0.2121
v -0.2772 0.8800 0.1148
v -0.3000 0.8800 0.0000
v -0.2772 0.8800 -0.1148
v -0.2121 0.8800 -0.2121
v -0.1148 0.8800 -0.2772
v -0.0000 0.8800 -0.3000
v 0.1148 0.8800 -0.2772
v 0.2121 0.8800 -0.2121
v 0.2772 0.8800 -0.1148
f 1 2 3
f 1 3 4
f 1 4 5
f 1 5 6
f 1 6 7
f 1 7 8
f 1 8 9
f 1 9 10
f 1 10 11
f 1 11 12
f 1 12 13
f 1 13 14
f 1 14 15
f 1 15 16
f 1 16 17
f 1 17 2
f 18 20 19
f 18 21 20
f 18 22 21
f 18 23 22
f 18 24 23
f 18 25 24
f 18 26 25
f 18 27 26
f 18 28 27
f 18 29 28
f 18 30 29
f 18 31 30
f 18 32 31
f 18 33 32
f 18 34 33
f 18 19 34
f 2 3 20 19
f 3 4 21 20
f 4 5 22 21
f 5 6 23 22
f 6 7 24 23
f 7 8 25 24
f 8 9 26 25
f 9 10 27 26
f 10 11 28 27
f 11 12 29 28
f 12 13 30 29
f 13 14 31 30
f 14 15 32 31
f 15 16 33 32
f 16 17 34 33
f 17 2 19 34
