# Emersyn Runner - models/pickups/powerup_capsule.obj
v 0.0000 0.8000 0.0000
v 0.2500 0.8000 0.0000
v 0.2165 0.8000 0.1250
v 0.1250 0.8000 0.2165
v 0.0000 0.8000 0.2500
v -0.1250 0.8000 0.2165
v -0.2165 0.8000 0.1250
v -0.2500 0.8000 0.0000
v -0.2165 0.8000 -0.1250
v -0.1250 0.8000 -0.2165
v -0.0000 0.8000 -0.2500
v 0.1250 0.8000 -0.2165
v 0.2165 0.8000 -0.1250
v 0.0000 1.4000 0.0000
v 0.2500 1.4000 0.0000
v 0.2165 1.4000 0.1250
v 0.1250 1.4000 0.2165
v 0.0000 1.4000 0.2500
v -0.1250 1.4000 0.2165
v -0.2165 1.4000 0.1250
v -0.2500 1.4000 0.0000
v -0.2165 1.4000 -0.1250
v -0.1250 1.4000 -0.2165
v -0.0000 1.4000 -0.2500
v 0.1250 1.4000 -0.2165
v 0.2165 1.4000 -0.1250
f 1 2 3
f 1 3 4
f 1 4 5
f 1 5 6
f 1 6 7
f 1 7 8
f 1 8 9
f 1 9 10
f 1 10 11
f 1 11 12
f 1 12 13
f 1 13 2
f 14 16 15
f 14 17 16
f 14 18 17
f 14 19 18
f 14 20 19
f 14 21 20
f 14 22 21
f 14 23 22
f 14 24 23
f 14 25 24
f 14 26 25
f 14 15 26
f 2 3 16 15
f 3 4 17 16
f 4 5 18 17
f 5 6 19 18
f 6 7 20 19
f 7 8 21 20
f 8 9 22 21
f 9 10 23 22
f 10 11 24 23
f 11 12 25 24
f 12 13 26 25
f 13 2 15 26
