# Emersyn Runner - models/player/emersyn_placeholder.obj
v 0.0000 0.3000 0.0000
v 0.3000 0.3000 0.0000
v 0.2598 0.3000 0.1500
v 0.1500 0.3000 0.2598
v 0.0000 0.3000 0.3000
v -0.1500 0.3000 0.2598
v -0.2598 0.3000 0.1500
v -0.3000 0.3000 0.0000
v -0.2598 0.3000 -0.1500
v -0.1500 0.3000 -0.2598
v -0.0000 0.3000 -0.3000
v 0.1500 0.3000 -0.2598
v 0.2598 0.3000 -0.1500
v 0.0000 1.5000 0.0000
v 0.3000 1.5000 0.0000
v 0.2598 1.5000 0.1500
v 0.1500 1.5000 0.2598
v 0.0000 1.5000 0.3000
v -0.1500 1.5000 0.2598
v -0.2598 1.5000 0.1500
v -0.3000 1.5000 0.0000
v -0.2598 1.5000 -0.1500
v -0.1500 1.5000 -0.2598
v -0.0000 1.5000 -0.3000
v 0.1500 1.5000 -0.2598
v 0.2598 1.5000 -0.1500
v 0.0000 1.5000 0.0000
v 0.2000 1.5000 0.0000
v 0.1732 1.5000 0.1000
v 0.1000 1.5000 0.1732
v 0.0000 1.5000 0.2000
v -0.1000 1.5000 0.1732
v -0.1732 1.5000 0.1000
v -0.2000 1.5000 0.0000
v -0.1732 1.5000 -0.1000
v -0.1000 1.5000 -0.1732
v -0.0000 1.5000 -0.2000
v 0.1000 1.5000 -0.1732
v 0.1732 1.5000 -0.1000
v 0.0000 1.9000 0.0000
v 0.2000 1.9000 0.0000
v 0.1732 1.9000 0.1000
v 0.1000 1.9000 0.1732
v 0.0000 1.9000 0.2000
v -0.1000 1.9000 0.1732
v -0.1732 1.9000 0.1000
v -0.2000 1.9000 0.0000
v -0.1732 1.9000 -0.1000
v -0.1000 1.9000 -0.1732
v -0.0000 1.9000 -0.2000
v 0.1000 1.9000 -0.1732
v 0.1732 1.9000 -0.1000
f 1 2 3
f 1 3 4
f 1 4 5
f 1 5 6
f 1 6 7
f 1 7 8
f 1 8 9
f 1 9 10
f 1 10 11
f 1 11 12
f 1 12 13
f 1 13 2
f 14 16 15
f 14 17 16
f 14 18 17
f 14 19 18
f 14 20 19
f 14 21 20
f 14 22 21
f 14 23 22
f 14 24 23
f 14 25 24
f 14 26 25
f 14 15 26
f 2 3 16 15
f 3 4 17 16
f 4 5 18 17
f 5 6 19 18
f 6 7 20 19
f 7 8 21 20
f 8 9 22 21
f 9 10 23 22
f 10 11 24 23
f 11 12 25 24
f 12 13 26 25
f 13 2 15 26
f 27 28 29
f 27 29 30
f 27 30 31
f 27 31 32
f 27 32 33
f 27 33 34
f 27 34 35
f 27 35 36
f 27 36 37
f 27 37 38
f 27 38 39
f 27 39 28
f 40 42 41
f 40 43 42
f 40 44 43
f 40 45 44
f 40 46 45
f 40 47 46
f 40 48 47
f 40 49 48
f 40 50 49
f 40 51 50
f 40 52 51
f 40 41 52
f 28 29 42 41
f 29 30 43 42
f 30 31 44 43
f 31 32 45 44
f 32 33 46 45
f 33 34 47 46
f 34 35 48 47
f 35 36 49 48
f 36 37 50 49
f 37 38 51 50
f 38 39 52 51
f 39 28 41 52
